<mxfile host="app.diagrams.net" modified="2024-04-29T15:32:54.625Z" agent="Mozilla/5.0 (Windows NT 10.0; Win64; x64) AppleWebKit/537.36 (KHTML, like Gecko) Chrome/124.0.0.0 Safari/537.36" etag="FKBsz0LRYWMkFvDcFw7_" version="24.3.0" type="github">
  <diagram name="Page-1" id="mYSheAjxuDzlM1OwTrg1">
    <mxGraphModel dx="1850" dy="530" grid="1" gridSize="10" guides="1" tooltips="1" connect="1" arrows="1" fold="1" page="1" pageScale="1" pageWidth="850" pageHeight="1100" math="0" shadow="0">
      <root>
        <mxCell id="0" />
        <mxCell id="1" parent="0" />
        <mxCell id="p3_Wb0V0BwmXtn1FnA3j-1" value="`driver_users`" style="shape=table;startSize=30;container=1;collapsible=1;childLayout=tableLayout;fixedRows=1;rowLines=0;fontStyle=1;align=center;resizeLast=1;fontSize=16;" parent="1" vertex="1">
          <mxGeometry x="-420" y="480" width="490" height="420" as="geometry" />
        </mxCell>
        <mxCell id="p3_Wb0V0BwmXtn1FnA3j-2" value="" style="shape=tableRow;horizontal=0;startSize=0;swimlaneHead=0;swimlaneBody=0;fillColor=none;collapsible=0;dropTarget=0;points=[[0,0.5],[1,0.5]];portConstraint=eastwest;strokeColor=inherit;top=0;left=0;right=0;bottom=1;fontSize=16;" parent="p3_Wb0V0BwmXtn1FnA3j-1" vertex="1">
          <mxGeometry y="30" width="490" height="30" as="geometry" />
        </mxCell>
        <mxCell id="p3_Wb0V0BwmXtn1FnA3j-3" value="PK" style="shape=partialRectangle;overflow=hidden;connectable=0;fillColor=none;strokeColor=inherit;top=0;left=0;bottom=0;right=0;fontStyle=1;fontSize=16;" parent="p3_Wb0V0BwmXtn1FnA3j-2" vertex="1">
          <mxGeometry width="30" height="30" as="geometry">
            <mxRectangle width="30" height="30" as="alternateBounds" />
          </mxGeometry>
        </mxCell>
        <mxCell id="p3_Wb0V0BwmXtn1FnA3j-4" value="`id` bigint(20) unsigned NOT NULL AUTO_INCREMENT" style="shape=partialRectangle;overflow=hidden;connectable=0;fillColor=none;align=left;strokeColor=inherit;top=0;left=0;bottom=0;right=0;spacingLeft=6;fontStyle=5;fontSize=16;" parent="p3_Wb0V0BwmXtn1FnA3j-2" vertex="1">
          <mxGeometry x="30" width="460" height="30" as="geometry">
            <mxRectangle width="460" height="30" as="alternateBounds" />
          </mxGeometry>
        </mxCell>
        <mxCell id="p3_Wb0V0BwmXtn1FnA3j-5" value="" style="shape=tableRow;horizontal=0;startSize=0;swimlaneHead=0;swimlaneBody=0;fillColor=none;collapsible=0;dropTarget=0;points=[[0,0.5],[1,0.5]];portConstraint=eastwest;strokeColor=inherit;top=0;left=0;right=0;bottom=0;fontSize=16;" parent="p3_Wb0V0BwmXtn1FnA3j-1" vertex="1">
          <mxGeometry y="60" width="490" height="30" as="geometry" />
        </mxCell>
        <mxCell id="p3_Wb0V0BwmXtn1FnA3j-6" value="" style="shape=partialRectangle;overflow=hidden;connectable=0;fillColor=none;strokeColor=inherit;top=0;left=0;bottom=0;right=0;fontSize=16;" parent="p3_Wb0V0BwmXtn1FnA3j-5" vertex="1">
          <mxGeometry width="30" height="30" as="geometry">
            <mxRectangle width="30" height="30" as="alternateBounds" />
          </mxGeometry>
        </mxCell>
        <mxCell id="p3_Wb0V0BwmXtn1FnA3j-7" value="`username` varchar(191) NOT NULL" style="shape=partialRectangle;overflow=hidden;connectable=0;fillColor=none;align=left;strokeColor=inherit;top=0;left=0;bottom=0;right=0;spacingLeft=6;fontSize=16;" parent="p3_Wb0V0BwmXtn1FnA3j-5" vertex="1">
          <mxGeometry x="30" width="460" height="30" as="geometry">
            <mxRectangle width="460" height="30" as="alternateBounds" />
          </mxGeometry>
        </mxCell>
        <mxCell id="p3_Wb0V0BwmXtn1FnA3j-8" value="" style="shape=tableRow;horizontal=0;startSize=0;swimlaneHead=0;swimlaneBody=0;fillColor=none;collapsible=0;dropTarget=0;points=[[0,0.5],[1,0.5]];portConstraint=eastwest;strokeColor=inherit;top=0;left=0;right=0;bottom=0;fontSize=16;" parent="p3_Wb0V0BwmXtn1FnA3j-1" vertex="1">
          <mxGeometry y="90" width="490" height="30" as="geometry" />
        </mxCell>
        <mxCell id="p3_Wb0V0BwmXtn1FnA3j-9" value="" style="shape=partialRectangle;overflow=hidden;connectable=0;fillColor=none;strokeColor=inherit;top=0;left=0;bottom=0;right=0;fontSize=16;" parent="p3_Wb0V0BwmXtn1FnA3j-8" vertex="1">
          <mxGeometry width="30" height="30" as="geometry">
            <mxRectangle width="30" height="30" as="alternateBounds" />
          </mxGeometry>
        </mxCell>
        <mxCell id="p3_Wb0V0BwmXtn1FnA3j-10" value="`email` varchar(191) NOT NULL" style="shape=partialRectangle;overflow=hidden;connectable=0;fillColor=none;align=left;strokeColor=inherit;top=0;left=0;bottom=0;right=0;spacingLeft=6;fontSize=16;" parent="p3_Wb0V0BwmXtn1FnA3j-8" vertex="1">
          <mxGeometry x="30" width="460" height="30" as="geometry">
            <mxRectangle width="460" height="30" as="alternateBounds" />
          </mxGeometry>
        </mxCell>
        <mxCell id="p3_Wb0V0BwmXtn1FnA3j-11" value="" style="shape=tableRow;horizontal=0;startSize=0;swimlaneHead=0;swimlaneBody=0;fillColor=none;collapsible=0;dropTarget=0;points=[[0,0.5],[1,0.5]];portConstraint=eastwest;strokeColor=inherit;top=0;left=0;right=0;bottom=0;fontSize=16;" parent="p3_Wb0V0BwmXtn1FnA3j-1" vertex="1">
          <mxGeometry y="120" width="490" height="30" as="geometry" />
        </mxCell>
        <mxCell id="p3_Wb0V0BwmXtn1FnA3j-12" value="" style="shape=partialRectangle;overflow=hidden;connectable=0;fillColor=none;strokeColor=inherit;top=0;left=0;bottom=0;right=0;fontSize=16;" parent="p3_Wb0V0BwmXtn1FnA3j-11" vertex="1">
          <mxGeometry width="30" height="30" as="geometry">
            <mxRectangle width="30" height="30" as="alternateBounds" />
          </mxGeometry>
        </mxCell>
        <mxCell id="p3_Wb0V0BwmXtn1FnA3j-13" value="`phone` varchar(100) NOT NULL" style="shape=partialRectangle;overflow=hidden;connectable=0;fillColor=none;align=left;strokeColor=inherit;top=0;left=0;bottom=0;right=0;spacingLeft=6;fontSize=16;" parent="p3_Wb0V0BwmXtn1FnA3j-11" vertex="1">
          <mxGeometry x="30" width="460" height="30" as="geometry">
            <mxRectangle width="460" height="30" as="alternateBounds" />
          </mxGeometry>
        </mxCell>
        <mxCell id="p3_Wb0V0BwmXtn1FnA3j-14" value="" style="shape=tableRow;horizontal=0;startSize=0;swimlaneHead=0;swimlaneBody=0;fillColor=none;collapsible=0;dropTarget=0;points=[[0,0.5],[1,0.5]];portConstraint=eastwest;strokeColor=inherit;top=0;left=0;right=0;bottom=0;fontSize=16;" parent="p3_Wb0V0BwmXtn1FnA3j-1" vertex="1">
          <mxGeometry y="150" width="490" height="30" as="geometry" />
        </mxCell>
        <mxCell id="p3_Wb0V0BwmXtn1FnA3j-15" value="" style="shape=partialRectangle;overflow=hidden;connectable=0;fillColor=none;strokeColor=inherit;top=0;left=0;bottom=0;right=0;fontSize=16;" parent="p3_Wb0V0BwmXtn1FnA3j-14" vertex="1">
          <mxGeometry width="30" height="30" as="geometry">
            <mxRectangle width="30" height="30" as="alternateBounds" />
          </mxGeometry>
        </mxCell>
        <mxCell id="p3_Wb0V0BwmXtn1FnA3j-16" value="`email_verified_at` timestamp NULL DEFAULT NULL" style="shape=partialRectangle;overflow=hidden;connectable=0;fillColor=none;align=left;strokeColor=inherit;top=0;left=0;bottom=0;right=0;spacingLeft=6;fontSize=16;" parent="p3_Wb0V0BwmXtn1FnA3j-14" vertex="1">
          <mxGeometry x="30" width="460" height="30" as="geometry">
            <mxRectangle width="460" height="30" as="alternateBounds" />
          </mxGeometry>
        </mxCell>
        <mxCell id="p3_Wb0V0BwmXtn1FnA3j-17" value="" style="shape=tableRow;horizontal=0;startSize=0;swimlaneHead=0;swimlaneBody=0;fillColor=none;collapsible=0;dropTarget=0;points=[[0,0.5],[1,0.5]];portConstraint=eastwest;strokeColor=inherit;top=0;left=0;right=0;bottom=0;fontSize=16;" parent="p3_Wb0V0BwmXtn1FnA3j-1" vertex="1">
          <mxGeometry y="180" width="490" height="30" as="geometry" />
        </mxCell>
        <mxCell id="p3_Wb0V0BwmXtn1FnA3j-18" value="" style="shape=partialRectangle;overflow=hidden;connectable=0;fillColor=none;strokeColor=inherit;top=0;left=0;bottom=0;right=0;fontSize=16;" parent="p3_Wb0V0BwmXtn1FnA3j-17" vertex="1">
          <mxGeometry width="30" height="30" as="geometry">
            <mxRectangle width="30" height="30" as="alternateBounds" />
          </mxGeometry>
        </mxCell>
        <mxCell id="p3_Wb0V0BwmXtn1FnA3j-19" value="`password` varchar(191) NOT NULL" style="shape=partialRectangle;overflow=hidden;connectable=0;fillColor=none;align=left;strokeColor=inherit;top=0;left=0;bottom=0;right=0;spacingLeft=6;fontSize=16;" parent="p3_Wb0V0BwmXtn1FnA3j-17" vertex="1">
          <mxGeometry x="30" width="460" height="30" as="geometry">
            <mxRectangle width="460" height="30" as="alternateBounds" />
          </mxGeometry>
        </mxCell>
        <mxCell id="p3_Wb0V0BwmXtn1FnA3j-20" value="" style="shape=tableRow;horizontal=0;startSize=0;swimlaneHead=0;swimlaneBody=0;fillColor=none;collapsible=0;dropTarget=0;points=[[0,0.5],[1,0.5]];portConstraint=eastwest;strokeColor=inherit;top=0;left=0;right=0;bottom=0;fontSize=16;" parent="p3_Wb0V0BwmXtn1FnA3j-1" vertex="1">
          <mxGeometry y="210" width="490" height="30" as="geometry" />
        </mxCell>
        <mxCell id="p3_Wb0V0BwmXtn1FnA3j-21" value="" style="shape=partialRectangle;overflow=hidden;connectable=0;fillColor=none;strokeColor=inherit;top=0;left=0;bottom=0;right=0;fontSize=16;" parent="p3_Wb0V0BwmXtn1FnA3j-20" vertex="1">
          <mxGeometry width="30" height="30" as="geometry">
            <mxRectangle width="30" height="30" as="alternateBounds" />
          </mxGeometry>
        </mxCell>
        <mxCell id="p3_Wb0V0BwmXtn1FnA3j-22" value="`otp` varchar(191) DEFAULT NULL" style="shape=partialRectangle;overflow=hidden;connectable=0;fillColor=none;align=left;strokeColor=inherit;top=0;left=0;bottom=0;right=0;spacingLeft=6;fontSize=16;" parent="p3_Wb0V0BwmXtn1FnA3j-20" vertex="1">
          <mxGeometry x="30" width="460" height="30" as="geometry">
            <mxRectangle width="460" height="30" as="alternateBounds" />
          </mxGeometry>
        </mxCell>
        <mxCell id="p3_Wb0V0BwmXtn1FnA3j-23" value="" style="shape=tableRow;horizontal=0;startSize=0;swimlaneHead=0;swimlaneBody=0;fillColor=none;collapsible=0;dropTarget=0;points=[[0,0.5],[1,0.5]];portConstraint=eastwest;strokeColor=inherit;top=0;left=0;right=0;bottom=0;fontSize=16;" parent="p3_Wb0V0BwmXtn1FnA3j-1" vertex="1">
          <mxGeometry y="240" width="490" height="30" as="geometry" />
        </mxCell>
        <mxCell id="p3_Wb0V0BwmXtn1FnA3j-24" value="" style="shape=partialRectangle;overflow=hidden;connectable=0;fillColor=none;strokeColor=inherit;top=0;left=0;bottom=0;right=0;fontSize=16;" parent="p3_Wb0V0BwmXtn1FnA3j-23" vertex="1">
          <mxGeometry width="30" height="30" as="geometry">
            <mxRectangle width="30" height="30" as="alternateBounds" />
          </mxGeometry>
        </mxCell>
        <mxCell id="p3_Wb0V0BwmXtn1FnA3j-25" value="`status` tinyint(1) NOT NULL DEFAULT 1" style="shape=partialRectangle;overflow=hidden;connectable=0;fillColor=none;align=left;strokeColor=inherit;top=0;left=0;bottom=0;right=0;spacingLeft=6;fontSize=16;" parent="p3_Wb0V0BwmXtn1FnA3j-23" vertex="1">
          <mxGeometry x="30" width="460" height="30" as="geometry">
            <mxRectangle width="460" height="30" as="alternateBounds" />
          </mxGeometry>
        </mxCell>
        <mxCell id="p3_Wb0V0BwmXtn1FnA3j-26" value="" style="shape=tableRow;horizontal=0;startSize=0;swimlaneHead=0;swimlaneBody=0;fillColor=none;collapsible=0;dropTarget=0;points=[[0,0.5],[1,0.5]];portConstraint=eastwest;strokeColor=inherit;top=0;left=0;right=0;bottom=0;fontSize=16;" parent="p3_Wb0V0BwmXtn1FnA3j-1" vertex="1">
          <mxGeometry y="270" width="490" height="30" as="geometry" />
        </mxCell>
        <mxCell id="p3_Wb0V0BwmXtn1FnA3j-27" value="" style="shape=partialRectangle;overflow=hidden;connectable=0;fillColor=none;strokeColor=inherit;top=0;left=0;bottom=0;right=0;fontSize=16;" parent="p3_Wb0V0BwmXtn1FnA3j-26" vertex="1">
          <mxGeometry width="30" height="30" as="geometry">
            <mxRectangle width="30" height="30" as="alternateBounds" />
          </mxGeometry>
        </mxCell>
        <mxCell id="p3_Wb0V0BwmXtn1FnA3j-28" value="`verify_status` varchar(191) NOT NULL DEFAULT &#39;PENDING&#39;" style="shape=partialRectangle;overflow=hidden;connectable=0;fillColor=none;align=left;strokeColor=inherit;top=0;left=0;bottom=0;right=0;spacingLeft=6;fontSize=16;" parent="p3_Wb0V0BwmXtn1FnA3j-26" vertex="1">
          <mxGeometry x="30" width="460" height="30" as="geometry">
            <mxRectangle width="460" height="30" as="alternateBounds" />
          </mxGeometry>
        </mxCell>
        <mxCell id="p3_Wb0V0BwmXtn1FnA3j-29" value="" style="shape=tableRow;horizontal=0;startSize=0;swimlaneHead=0;swimlaneBody=0;fillColor=none;collapsible=0;dropTarget=0;points=[[0,0.5],[1,0.5]];portConstraint=eastwest;strokeColor=inherit;top=0;left=0;right=0;bottom=0;fontSize=16;" parent="p3_Wb0V0BwmXtn1FnA3j-1" vertex="1">
          <mxGeometry y="300" width="490" height="30" as="geometry" />
        </mxCell>
        <mxCell id="p3_Wb0V0BwmXtn1FnA3j-30" value="" style="shape=partialRectangle;overflow=hidden;connectable=0;fillColor=none;strokeColor=inherit;top=0;left=0;bottom=0;right=0;fontSize=16;" parent="p3_Wb0V0BwmXtn1FnA3j-29" vertex="1">
          <mxGeometry width="30" height="30" as="geometry">
            <mxRectangle width="30" height="30" as="alternateBounds" />
          </mxGeometry>
        </mxCell>
        <mxCell id="p3_Wb0V0BwmXtn1FnA3j-31" value="`remember_token` varchar(100) DEFAULT NULL" style="shape=partialRectangle;overflow=hidden;connectable=0;fillColor=none;align=left;strokeColor=inherit;top=0;left=0;bottom=0;right=0;spacingLeft=6;fontSize=16;" parent="p3_Wb0V0BwmXtn1FnA3j-29" vertex="1">
          <mxGeometry x="30" width="460" height="30" as="geometry">
            <mxRectangle width="460" height="30" as="alternateBounds" />
          </mxGeometry>
        </mxCell>
        <mxCell id="p3_Wb0V0BwmXtn1FnA3j-32" value="" style="shape=tableRow;horizontal=0;startSize=0;swimlaneHead=0;swimlaneBody=0;fillColor=none;collapsible=0;dropTarget=0;points=[[0,0.5],[1,0.5]];portConstraint=eastwest;strokeColor=inherit;top=0;left=0;right=0;bottom=0;fontSize=16;" parent="p3_Wb0V0BwmXtn1FnA3j-1" vertex="1">
          <mxGeometry y="330" width="490" height="30" as="geometry" />
        </mxCell>
        <mxCell id="p3_Wb0V0BwmXtn1FnA3j-33" value="" style="shape=partialRectangle;overflow=hidden;connectable=0;fillColor=none;strokeColor=inherit;top=0;left=0;bottom=0;right=0;fontSize=16;" parent="p3_Wb0V0BwmXtn1FnA3j-32" vertex="1">
          <mxGeometry width="30" height="30" as="geometry">
            <mxRectangle width="30" height="30" as="alternateBounds" />
          </mxGeometry>
        </mxCell>
        <mxCell id="p3_Wb0V0BwmXtn1FnA3j-34" value="`deleted_at` timestamp NULL DEFAULT NULL" style="shape=partialRectangle;overflow=hidden;connectable=0;fillColor=none;align=left;strokeColor=inherit;top=0;left=0;bottom=0;right=0;spacingLeft=6;fontSize=16;" parent="p3_Wb0V0BwmXtn1FnA3j-32" vertex="1">
          <mxGeometry x="30" width="460" height="30" as="geometry">
            <mxRectangle width="460" height="30" as="alternateBounds" />
          </mxGeometry>
        </mxCell>
        <mxCell id="p3_Wb0V0BwmXtn1FnA3j-35" value="" style="shape=tableRow;horizontal=0;startSize=0;swimlaneHead=0;swimlaneBody=0;fillColor=none;collapsible=0;dropTarget=0;points=[[0,0.5],[1,0.5]];portConstraint=eastwest;strokeColor=inherit;top=0;left=0;right=0;bottom=0;fontSize=16;" parent="p3_Wb0V0BwmXtn1FnA3j-1" vertex="1">
          <mxGeometry y="360" width="490" height="30" as="geometry" />
        </mxCell>
        <mxCell id="p3_Wb0V0BwmXtn1FnA3j-36" value="" style="shape=partialRectangle;overflow=hidden;connectable=0;fillColor=none;strokeColor=inherit;top=0;left=0;bottom=0;right=0;fontSize=16;" parent="p3_Wb0V0BwmXtn1FnA3j-35" vertex="1">
          <mxGeometry width="30" height="30" as="geometry">
            <mxRectangle width="30" height="30" as="alternateBounds" />
          </mxGeometry>
        </mxCell>
        <mxCell id="p3_Wb0V0BwmXtn1FnA3j-37" value="`created_at` timestamp NULL DEFAULT NULL" style="shape=partialRectangle;overflow=hidden;connectable=0;fillColor=none;align=left;strokeColor=inherit;top=0;left=0;bottom=0;right=0;spacingLeft=6;fontSize=16;" parent="p3_Wb0V0BwmXtn1FnA3j-35" vertex="1">
          <mxGeometry x="30" width="460" height="30" as="geometry">
            <mxRectangle width="460" height="30" as="alternateBounds" />
          </mxGeometry>
        </mxCell>
        <mxCell id="p3_Wb0V0BwmXtn1FnA3j-38" value="" style="shape=tableRow;horizontal=0;startSize=0;swimlaneHead=0;swimlaneBody=0;fillColor=none;collapsible=0;dropTarget=0;points=[[0,0.5],[1,0.5]];portConstraint=eastwest;strokeColor=inherit;top=0;left=0;right=0;bottom=0;fontSize=16;" parent="p3_Wb0V0BwmXtn1FnA3j-1" vertex="1">
          <mxGeometry y="390" width="490" height="30" as="geometry" />
        </mxCell>
        <mxCell id="p3_Wb0V0BwmXtn1FnA3j-39" value="" style="shape=partialRectangle;overflow=hidden;connectable=0;fillColor=none;strokeColor=inherit;top=0;left=0;bottom=0;right=0;fontSize=16;" parent="p3_Wb0V0BwmXtn1FnA3j-38" vertex="1">
          <mxGeometry width="30" height="30" as="geometry">
            <mxRectangle width="30" height="30" as="alternateBounds" />
          </mxGeometry>
        </mxCell>
        <mxCell id="p3_Wb0V0BwmXtn1FnA3j-40" value="`updated_at` timestamp NULL DEFAULT NULL" style="shape=partialRectangle;overflow=hidden;connectable=0;fillColor=none;align=left;strokeColor=inherit;top=0;left=0;bottom=0;right=0;spacingLeft=6;fontSize=16;" parent="p3_Wb0V0BwmXtn1FnA3j-38" vertex="1">
          <mxGeometry x="30" width="460" height="30" as="geometry">
            <mxRectangle width="460" height="30" as="alternateBounds" />
          </mxGeometry>
        </mxCell>
        <mxCell id="p3_Wb0V0BwmXtn1FnA3j-50" value="`driver_users_notifications`" style="shape=table;startSize=30;container=1;collapsible=1;childLayout=tableLayout;fixedRows=1;rowLines=0;fontStyle=1;align=center;resizeLast=1;fontSize=16;" parent="1" vertex="1">
          <mxGeometry x="432.5" y="290" width="470" height="210" as="geometry" />
        </mxCell>
        <mxCell id="p3_Wb0V0BwmXtn1FnA3j-51" value="" style="shape=tableRow;horizontal=0;startSize=0;swimlaneHead=0;swimlaneBody=0;fillColor=none;collapsible=0;dropTarget=0;points=[[0,0.5],[1,0.5]];portConstraint=eastwest;strokeColor=inherit;top=0;left=0;right=0;bottom=1;fontSize=16;" parent="p3_Wb0V0BwmXtn1FnA3j-50" vertex="1">
          <mxGeometry y="30" width="470" height="30" as="geometry" />
        </mxCell>
        <mxCell id="p3_Wb0V0BwmXtn1FnA3j-52" value="PK" style="shape=partialRectangle;overflow=hidden;connectable=0;fillColor=none;strokeColor=inherit;top=0;left=0;bottom=0;right=0;fontStyle=1;fontSize=16;" parent="p3_Wb0V0BwmXtn1FnA3j-51" vertex="1">
          <mxGeometry width="30" height="30" as="geometry">
            <mxRectangle width="30" height="30" as="alternateBounds" />
          </mxGeometry>
        </mxCell>
        <mxCell id="p3_Wb0V0BwmXtn1FnA3j-53" value="`id` bigint(20) unsigned NOT NULL AUTO_INCREMENT" style="shape=partialRectangle;overflow=hidden;connectable=0;fillColor=none;align=left;strokeColor=inherit;top=0;left=0;bottom=0;right=0;spacingLeft=6;fontStyle=5;fontSize=16;" parent="p3_Wb0V0BwmXtn1FnA3j-51" vertex="1">
          <mxGeometry x="30" width="440" height="30" as="geometry">
            <mxRectangle width="440" height="30" as="alternateBounds" />
          </mxGeometry>
        </mxCell>
        <mxCell id="p3_Wb0V0BwmXtn1FnA3j-54" value="" style="shape=tableRow;horizontal=0;startSize=0;swimlaneHead=0;swimlaneBody=0;fillColor=none;collapsible=0;dropTarget=0;points=[[0,0.5],[1,0.5]];portConstraint=eastwest;strokeColor=inherit;top=0;left=0;right=0;bottom=0;fontSize=16;" parent="p3_Wb0V0BwmXtn1FnA3j-50" vertex="1">
          <mxGeometry y="60" width="470" height="30" as="geometry" />
        </mxCell>
        <mxCell id="p3_Wb0V0BwmXtn1FnA3j-55" value="" style="shape=partialRectangle;overflow=hidden;connectable=0;fillColor=none;strokeColor=inherit;top=0;left=0;bottom=0;right=0;fontSize=16;" parent="p3_Wb0V0BwmXtn1FnA3j-54" vertex="1">
          <mxGeometry width="30" height="30" as="geometry">
            <mxRectangle width="30" height="30" as="alternateBounds" />
          </mxGeometry>
        </mxCell>
        <mxCell id="p3_Wb0V0BwmXtn1FnA3j-56" value="`driver_user_id` bigint(20) unsigned NOT NULL" style="shape=partialRectangle;overflow=hidden;connectable=0;fillColor=none;align=left;strokeColor=inherit;top=0;left=0;bottom=0;right=0;spacingLeft=6;fontSize=16;" parent="p3_Wb0V0BwmXtn1FnA3j-54" vertex="1">
          <mxGeometry x="30" width="440" height="30" as="geometry">
            <mxRectangle width="440" height="30" as="alternateBounds" />
          </mxGeometry>
        </mxCell>
        <mxCell id="p3_Wb0V0BwmXtn1FnA3j-57" value="" style="shape=tableRow;horizontal=0;startSize=0;swimlaneHead=0;swimlaneBody=0;fillColor=none;collapsible=0;dropTarget=0;points=[[0,0.5],[1,0.5]];portConstraint=eastwest;strokeColor=inherit;top=0;left=0;right=0;bottom=0;fontSize=16;" parent="p3_Wb0V0BwmXtn1FnA3j-50" vertex="1">
          <mxGeometry y="90" width="470" height="30" as="geometry" />
        </mxCell>
        <mxCell id="p3_Wb0V0BwmXtn1FnA3j-58" value="" style="shape=partialRectangle;overflow=hidden;connectable=0;fillColor=none;strokeColor=inherit;top=0;left=0;bottom=0;right=0;fontSize=16;" parent="p3_Wb0V0BwmXtn1FnA3j-57" vertex="1">
          <mxGeometry width="30" height="30" as="geometry">
            <mxRectangle width="30" height="30" as="alternateBounds" />
          </mxGeometry>
        </mxCell>
        <mxCell id="p3_Wb0V0BwmXtn1FnA3j-59" value="`title` varchar(191) NOT NULL" style="shape=partialRectangle;overflow=hidden;connectable=0;fillColor=none;align=left;strokeColor=inherit;top=0;left=0;bottom=0;right=0;spacingLeft=6;fontSize=16;" parent="p3_Wb0V0BwmXtn1FnA3j-57" vertex="1">
          <mxGeometry x="30" width="440" height="30" as="geometry">
            <mxRectangle width="440" height="30" as="alternateBounds" />
          </mxGeometry>
        </mxCell>
        <mxCell id="p3_Wb0V0BwmXtn1FnA3j-60" value="" style="shape=tableRow;horizontal=0;startSize=0;swimlaneHead=0;swimlaneBody=0;fillColor=none;collapsible=0;dropTarget=0;points=[[0,0.5],[1,0.5]];portConstraint=eastwest;strokeColor=inherit;top=0;left=0;right=0;bottom=0;fontSize=16;" parent="p3_Wb0V0BwmXtn1FnA3j-50" vertex="1">
          <mxGeometry y="120" width="470" height="30" as="geometry" />
        </mxCell>
        <mxCell id="p3_Wb0V0BwmXtn1FnA3j-61" value="" style="shape=partialRectangle;overflow=hidden;connectable=0;fillColor=none;strokeColor=inherit;top=0;left=0;bottom=0;right=0;fontSize=16;" parent="p3_Wb0V0BwmXtn1FnA3j-60" vertex="1">
          <mxGeometry width="30" height="30" as="geometry">
            <mxRectangle width="30" height="30" as="alternateBounds" />
          </mxGeometry>
        </mxCell>
        <mxCell id="p3_Wb0V0BwmXtn1FnA3j-62" value="`body` text NOT NULL" style="shape=partialRectangle;overflow=hidden;connectable=0;fillColor=none;align=left;strokeColor=inherit;top=0;left=0;bottom=0;right=0;spacingLeft=6;fontSize=16;" parent="p3_Wb0V0BwmXtn1FnA3j-60" vertex="1">
          <mxGeometry x="30" width="440" height="30" as="geometry">
            <mxRectangle width="440" height="30" as="alternateBounds" />
          </mxGeometry>
        </mxCell>
        <mxCell id="p3_Wb0V0BwmXtn1FnA3j-63" value="" style="shape=tableRow;horizontal=0;startSize=0;swimlaneHead=0;swimlaneBody=0;fillColor=none;collapsible=0;dropTarget=0;points=[[0,0.5],[1,0.5]];portConstraint=eastwest;strokeColor=inherit;top=0;left=0;right=0;bottom=0;fontSize=16;" parent="p3_Wb0V0BwmXtn1FnA3j-50" vertex="1">
          <mxGeometry y="150" width="470" height="30" as="geometry" />
        </mxCell>
        <mxCell id="p3_Wb0V0BwmXtn1FnA3j-64" value="" style="shape=partialRectangle;overflow=hidden;connectable=0;fillColor=none;strokeColor=inherit;top=0;left=0;bottom=0;right=0;fontSize=16;" parent="p3_Wb0V0BwmXtn1FnA3j-63" vertex="1">
          <mxGeometry width="30" height="30" as="geometry">
            <mxRectangle width="30" height="30" as="alternateBounds" />
          </mxGeometry>
        </mxCell>
        <mxCell id="p3_Wb0V0BwmXtn1FnA3j-65" value="`created_at` timestamp NULL DEFAULT NULL" style="shape=partialRectangle;overflow=hidden;connectable=0;fillColor=none;align=left;strokeColor=inherit;top=0;left=0;bottom=0;right=0;spacingLeft=6;fontSize=16;" parent="p3_Wb0V0BwmXtn1FnA3j-63" vertex="1">
          <mxGeometry x="30" width="440" height="30" as="geometry">
            <mxRectangle width="440" height="30" as="alternateBounds" />
          </mxGeometry>
        </mxCell>
        <mxCell id="p3_Wb0V0BwmXtn1FnA3j-66" value="" style="shape=tableRow;horizontal=0;startSize=0;swimlaneHead=0;swimlaneBody=0;fillColor=none;collapsible=0;dropTarget=0;points=[[0,0.5],[1,0.5]];portConstraint=eastwest;strokeColor=inherit;top=0;left=0;right=0;bottom=0;fontSize=16;" parent="p3_Wb0V0BwmXtn1FnA3j-50" vertex="1">
          <mxGeometry y="180" width="470" height="30" as="geometry" />
        </mxCell>
        <mxCell id="p3_Wb0V0BwmXtn1FnA3j-67" value="" style="shape=partialRectangle;overflow=hidden;connectable=0;fillColor=none;strokeColor=inherit;top=0;left=0;bottom=0;right=0;fontSize=16;" parent="p3_Wb0V0BwmXtn1FnA3j-66" vertex="1">
          <mxGeometry width="30" height="30" as="geometry">
            <mxRectangle width="30" height="30" as="alternateBounds" />
          </mxGeometry>
        </mxCell>
        <mxCell id="p3_Wb0V0BwmXtn1FnA3j-68" value="`updated_at` timestamp NULL DEFAULT NULL" style="shape=partialRectangle;overflow=hidden;connectable=0;fillColor=none;align=left;strokeColor=inherit;top=0;left=0;bottom=0;right=0;spacingLeft=6;fontSize=16;" parent="p3_Wb0V0BwmXtn1FnA3j-66" vertex="1">
          <mxGeometry x="30" width="440" height="30" as="geometry">
            <mxRectangle width="440" height="30" as="alternateBounds" />
          </mxGeometry>
        </mxCell>
        <mxCell id="p3_Wb0V0BwmXtn1FnA3j-69" value="`drivers`" style="shape=table;startSize=30;container=1;collapsible=1;childLayout=tableLayout;fixedRows=1;rowLines=0;fontStyle=1;align=center;resizeLast=1;fontSize=16;" parent="1" vertex="1">
          <mxGeometry x="425" y="740" width="485" height="300" as="geometry" />
        </mxCell>
        <mxCell id="p3_Wb0V0BwmXtn1FnA3j-70" value="" style="shape=tableRow;horizontal=0;startSize=0;swimlaneHead=0;swimlaneBody=0;fillColor=none;collapsible=0;dropTarget=0;points=[[0,0.5],[1,0.5]];portConstraint=eastwest;strokeColor=inherit;top=0;left=0;right=0;bottom=1;fontSize=16;" parent="p3_Wb0V0BwmXtn1FnA3j-69" vertex="1">
          <mxGeometry y="30" width="485" height="30" as="geometry" />
        </mxCell>
        <mxCell id="p3_Wb0V0BwmXtn1FnA3j-71" value="PK" style="shape=partialRectangle;overflow=hidden;connectable=0;fillColor=none;strokeColor=inherit;top=0;left=0;bottom=0;right=0;fontStyle=1;fontSize=16;" parent="p3_Wb0V0BwmXtn1FnA3j-70" vertex="1">
          <mxGeometry width="30" height="30" as="geometry">
            <mxRectangle width="30" height="30" as="alternateBounds" />
          </mxGeometry>
        </mxCell>
        <mxCell id="p3_Wb0V0BwmXtn1FnA3j-72" value="`id` bigint(20) unsigned NOT NULL AUTO_INCREMENT" style="shape=partialRectangle;overflow=hidden;connectable=0;fillColor=none;align=left;strokeColor=inherit;top=0;left=0;bottom=0;right=0;spacingLeft=6;fontStyle=5;fontSize=16;" parent="p3_Wb0V0BwmXtn1FnA3j-70" vertex="1">
          <mxGeometry x="30" width="455" height="30" as="geometry">
            <mxRectangle width="455" height="30" as="alternateBounds" />
          </mxGeometry>
        </mxCell>
        <mxCell id="p3_Wb0V0BwmXtn1FnA3j-73" value="" style="shape=tableRow;horizontal=0;startSize=0;swimlaneHead=0;swimlaneBody=0;fillColor=none;collapsible=0;dropTarget=0;points=[[0,0.5],[1,0.5]];portConstraint=eastwest;strokeColor=inherit;top=0;left=0;right=0;bottom=0;fontSize=16;" parent="p3_Wb0V0BwmXtn1FnA3j-69" vertex="1">
          <mxGeometry y="60" width="485" height="30" as="geometry" />
        </mxCell>
        <mxCell id="p3_Wb0V0BwmXtn1FnA3j-74" value="" style="shape=partialRectangle;overflow=hidden;connectable=0;fillColor=none;strokeColor=inherit;top=0;left=0;bottom=0;right=0;fontSize=16;" parent="p3_Wb0V0BwmXtn1FnA3j-73" vertex="1">
          <mxGeometry width="30" height="30" as="geometry">
            <mxRectangle width="30" height="30" as="alternateBounds" />
          </mxGeometry>
        </mxCell>
        <mxCell id="p3_Wb0V0BwmXtn1FnA3j-75" value="`driver_user_id` bigint(20) unsigned NOT NULL" style="shape=partialRectangle;overflow=hidden;connectable=0;fillColor=none;align=left;strokeColor=inherit;top=0;left=0;bottom=0;right=0;spacingLeft=6;fontSize=16;" parent="p3_Wb0V0BwmXtn1FnA3j-73" vertex="1">
          <mxGeometry x="30" width="455" height="30" as="geometry">
            <mxRectangle width="455" height="30" as="alternateBounds" />
          </mxGeometry>
        </mxCell>
        <mxCell id="p3_Wb0V0BwmXtn1FnA3j-76" value="" style="shape=tableRow;horizontal=0;startSize=0;swimlaneHead=0;swimlaneBody=0;fillColor=none;collapsible=0;dropTarget=0;points=[[0,0.5],[1,0.5]];portConstraint=eastwest;strokeColor=inherit;top=0;left=0;right=0;bottom=0;fontSize=16;" parent="p3_Wb0V0BwmXtn1FnA3j-69" vertex="1">
          <mxGeometry y="90" width="485" height="30" as="geometry" />
        </mxCell>
        <mxCell id="p3_Wb0V0BwmXtn1FnA3j-77" value="" style="shape=partialRectangle;overflow=hidden;connectable=0;fillColor=none;strokeColor=inherit;top=0;left=0;bottom=0;right=0;fontSize=16;" parent="p3_Wb0V0BwmXtn1FnA3j-76" vertex="1">
          <mxGeometry width="30" height="30" as="geometry">
            <mxRectangle width="30" height="30" as="alternateBounds" />
          </mxGeometry>
        </mxCell>
        <mxCell id="p3_Wb0V0BwmXtn1FnA3j-78" value="`name` varchar(100) DEFAULT NULL" style="shape=partialRectangle;overflow=hidden;connectable=0;fillColor=none;align=left;strokeColor=inherit;top=0;left=0;bottom=0;right=0;spacingLeft=6;fontSize=16;" parent="p3_Wb0V0BwmXtn1FnA3j-76" vertex="1">
          <mxGeometry x="30" width="455" height="30" as="geometry">
            <mxRectangle width="455" height="30" as="alternateBounds" />
          </mxGeometry>
        </mxCell>
        <mxCell id="p3_Wb0V0BwmXtn1FnA3j-79" value="" style="shape=tableRow;horizontal=0;startSize=0;swimlaneHead=0;swimlaneBody=0;fillColor=none;collapsible=0;dropTarget=0;points=[[0,0.5],[1,0.5]];portConstraint=eastwest;strokeColor=inherit;top=0;left=0;right=0;bottom=0;fontSize=16;" parent="p3_Wb0V0BwmXtn1FnA3j-69" vertex="1">
          <mxGeometry y="120" width="485" height="30" as="geometry" />
        </mxCell>
        <mxCell id="p3_Wb0V0BwmXtn1FnA3j-80" value="" style="shape=partialRectangle;overflow=hidden;connectable=0;fillColor=none;strokeColor=inherit;top=0;left=0;bottom=0;right=0;fontSize=16;" parent="p3_Wb0V0BwmXtn1FnA3j-79" vertex="1">
          <mxGeometry width="30" height="30" as="geometry">
            <mxRectangle width="30" height="30" as="alternateBounds" />
          </mxGeometry>
        </mxCell>
        <mxCell id="p3_Wb0V0BwmXtn1FnA3j-81" value="`date_of_birth` date DEFAULT NULL" style="shape=partialRectangle;overflow=hidden;connectable=0;fillColor=none;align=left;strokeColor=inherit;top=0;left=0;bottom=0;right=0;spacingLeft=6;fontSize=16;" parent="p3_Wb0V0BwmXtn1FnA3j-79" vertex="1">
          <mxGeometry x="30" width="455" height="30" as="geometry">
            <mxRectangle width="455" height="30" as="alternateBounds" />
          </mxGeometry>
        </mxCell>
        <mxCell id="p3_Wb0V0BwmXtn1FnA3j-82" value="" style="shape=tableRow;horizontal=0;startSize=0;swimlaneHead=0;swimlaneBody=0;fillColor=none;collapsible=0;dropTarget=0;points=[[0,0.5],[1,0.5]];portConstraint=eastwest;strokeColor=inherit;top=0;left=0;right=0;bottom=0;fontSize=16;" parent="p3_Wb0V0BwmXtn1FnA3j-69" vertex="1">
          <mxGeometry y="150" width="485" height="30" as="geometry" />
        </mxCell>
        <mxCell id="p3_Wb0V0BwmXtn1FnA3j-83" value="" style="shape=partialRectangle;overflow=hidden;connectable=0;fillColor=none;strokeColor=inherit;top=0;left=0;bottom=0;right=0;fontSize=16;" parent="p3_Wb0V0BwmXtn1FnA3j-82" vertex="1">
          <mxGeometry width="30" height="30" as="geometry">
            <mxRectangle width="30" height="30" as="alternateBounds" />
          </mxGeometry>
        </mxCell>
        <mxCell id="p3_Wb0V0BwmXtn1FnA3j-84" value="`location` varchar(191) DEFAULT NULL" style="shape=partialRectangle;overflow=hidden;connectable=0;fillColor=none;align=left;strokeColor=inherit;top=0;left=0;bottom=0;right=0;spacingLeft=6;fontSize=16;" parent="p3_Wb0V0BwmXtn1FnA3j-82" vertex="1">
          <mxGeometry x="30" width="455" height="30" as="geometry">
            <mxRectangle width="455" height="30" as="alternateBounds" />
          </mxGeometry>
        </mxCell>
        <mxCell id="p3_Wb0V0BwmXtn1FnA3j-85" value="" style="shape=tableRow;horizontal=0;startSize=0;swimlaneHead=0;swimlaneBody=0;fillColor=none;collapsible=0;dropTarget=0;points=[[0,0.5],[1,0.5]];portConstraint=eastwest;strokeColor=inherit;top=0;left=0;right=0;bottom=0;fontSize=16;" parent="p3_Wb0V0BwmXtn1FnA3j-69" vertex="1">
          <mxGeometry y="180" width="485" height="30" as="geometry" />
        </mxCell>
        <mxCell id="p3_Wb0V0BwmXtn1FnA3j-86" value="" style="shape=partialRectangle;overflow=hidden;connectable=0;fillColor=none;strokeColor=inherit;top=0;left=0;bottom=0;right=0;fontSize=16;" parent="p3_Wb0V0BwmXtn1FnA3j-85" vertex="1">
          <mxGeometry width="30" height="30" as="geometry">
            <mxRectangle width="30" height="30" as="alternateBounds" />
          </mxGeometry>
        </mxCell>
        <mxCell id="p3_Wb0V0BwmXtn1FnA3j-87" value="`no_vehicle` varchar(191) DEFAULT NULL" style="shape=partialRectangle;overflow=hidden;connectable=0;fillColor=none;align=left;strokeColor=inherit;top=0;left=0;bottom=0;right=0;spacingLeft=6;fontSize=16;" parent="p3_Wb0V0BwmXtn1FnA3j-85" vertex="1">
          <mxGeometry x="30" width="455" height="30" as="geometry">
            <mxRectangle width="455" height="30" as="alternateBounds" />
          </mxGeometry>
        </mxCell>
        <mxCell id="p3_Wb0V0BwmXtn1FnA3j-88" value="" style="shape=tableRow;horizontal=0;startSize=0;swimlaneHead=0;swimlaneBody=0;fillColor=none;collapsible=0;dropTarget=0;points=[[0,0.5],[1,0.5]];portConstraint=eastwest;strokeColor=inherit;top=0;left=0;right=0;bottom=0;fontSize=16;" parent="p3_Wb0V0BwmXtn1FnA3j-69" vertex="1">
          <mxGeometry y="210" width="485" height="30" as="geometry" />
        </mxCell>
        <mxCell id="p3_Wb0V0BwmXtn1FnA3j-89" value="" style="shape=partialRectangle;overflow=hidden;connectable=0;fillColor=none;strokeColor=inherit;top=0;left=0;bottom=0;right=0;fontSize=16;" parent="p3_Wb0V0BwmXtn1FnA3j-88" vertex="1">
          <mxGeometry width="30" height="30" as="geometry">
            <mxRectangle width="30" height="30" as="alternateBounds" />
          </mxGeometry>
        </mxCell>
        <mxCell id="p3_Wb0V0BwmXtn1FnA3j-90" value="`deleted_at` timestamp NULL DEFAULT NULL" style="shape=partialRectangle;overflow=hidden;connectable=0;fillColor=none;align=left;strokeColor=inherit;top=0;left=0;bottom=0;right=0;spacingLeft=6;fontSize=16;" parent="p3_Wb0V0BwmXtn1FnA3j-88" vertex="1">
          <mxGeometry x="30" width="455" height="30" as="geometry">
            <mxRectangle width="455" height="30" as="alternateBounds" />
          </mxGeometry>
        </mxCell>
        <mxCell id="p3_Wb0V0BwmXtn1FnA3j-91" value="" style="shape=tableRow;horizontal=0;startSize=0;swimlaneHead=0;swimlaneBody=0;fillColor=none;collapsible=0;dropTarget=0;points=[[0,0.5],[1,0.5]];portConstraint=eastwest;strokeColor=inherit;top=0;left=0;right=0;bottom=0;fontSize=16;" parent="p3_Wb0V0BwmXtn1FnA3j-69" vertex="1">
          <mxGeometry y="240" width="485" height="30" as="geometry" />
        </mxCell>
        <mxCell id="p3_Wb0V0BwmXtn1FnA3j-92" value="" style="shape=partialRectangle;overflow=hidden;connectable=0;fillColor=none;strokeColor=inherit;top=0;left=0;bottom=0;right=0;fontSize=16;" parent="p3_Wb0V0BwmXtn1FnA3j-91" vertex="1">
          <mxGeometry width="30" height="30" as="geometry">
            <mxRectangle width="30" height="30" as="alternateBounds" />
          </mxGeometry>
        </mxCell>
        <mxCell id="p3_Wb0V0BwmXtn1FnA3j-93" value="`created_at` timestamp NULL DEFAULT NULL" style="shape=partialRectangle;overflow=hidden;connectable=0;fillColor=none;align=left;strokeColor=inherit;top=0;left=0;bottom=0;right=0;spacingLeft=6;fontSize=16;" parent="p3_Wb0V0BwmXtn1FnA3j-91" vertex="1">
          <mxGeometry x="30" width="455" height="30" as="geometry">
            <mxRectangle width="455" height="30" as="alternateBounds" />
          </mxGeometry>
        </mxCell>
        <mxCell id="p3_Wb0V0BwmXtn1FnA3j-94" value="" style="shape=tableRow;horizontal=0;startSize=0;swimlaneHead=0;swimlaneBody=0;fillColor=none;collapsible=0;dropTarget=0;points=[[0,0.5],[1,0.5]];portConstraint=eastwest;strokeColor=inherit;top=0;left=0;right=0;bottom=0;fontSize=16;" parent="p3_Wb0V0BwmXtn1FnA3j-69" vertex="1">
          <mxGeometry y="270" width="485" height="30" as="geometry" />
        </mxCell>
        <mxCell id="p3_Wb0V0BwmXtn1FnA3j-95" value="" style="shape=partialRectangle;overflow=hidden;connectable=0;fillColor=none;strokeColor=inherit;top=0;left=0;bottom=0;right=0;fontSize=16;" parent="p3_Wb0V0BwmXtn1FnA3j-94" vertex="1">
          <mxGeometry width="30" height="30" as="geometry">
            <mxRectangle width="30" height="30" as="alternateBounds" />
          </mxGeometry>
        </mxCell>
        <mxCell id="p3_Wb0V0BwmXtn1FnA3j-96" value="`updated_at` timestamp NULL DEFAULT NULL" style="shape=partialRectangle;overflow=hidden;connectable=0;fillColor=none;align=left;strokeColor=inherit;top=0;left=0;bottom=0;right=0;spacingLeft=6;fontSize=16;" parent="p3_Wb0V0BwmXtn1FnA3j-94" vertex="1">
          <mxGeometry x="30" width="455" height="30" as="geometry">
            <mxRectangle width="455" height="30" as="alternateBounds" />
          </mxGeometry>
        </mxCell>
        <mxCell id="p3_Wb0V0BwmXtn1FnA3j-97" value="" style="edgeStyle=entityRelationEdgeStyle;fontSize=12;html=1;endArrow=ERone;startArrow=ERone;rounded=0;exitX=1;exitY=0.5;exitDx=0;exitDy=0;entryX=0;entryY=0.5;entryDx=0;entryDy=0;startFill=0;endFill=0;" parent="1" source="p3_Wb0V0BwmXtn1FnA3j-17" target="p3_Wb0V0BwmXtn1FnA3j-76" edge="1">
          <mxGeometry width="100" height="100" relative="1" as="geometry">
            <mxPoint x="150" y="950" as="sourcePoint" />
            <mxPoint x="250" y="850" as="targetPoint" />
          </mxGeometry>
        </mxCell>
        <mxCell id="p3_Wb0V0BwmXtn1FnA3j-98" value="&lt;font style=&quot;font-size: 21px;&quot;&gt;1 to 1&lt;/font&gt;" style="edgeLabel;html=1;align=center;verticalAlign=middle;resizable=0;points=[];fontSize=21;" parent="p3_Wb0V0BwmXtn1FnA3j-97" vertex="1" connectable="0">
          <mxGeometry x="0.0017" y="-5" relative="1" as="geometry">
            <mxPoint x="1" as="offset" />
          </mxGeometry>
        </mxCell>
        <mxCell id="p3_Wb0V0BwmXtn1FnA3j-99" value="" style="edgeStyle=entityRelationEdgeStyle;fontSize=12;html=1;endArrow=ERmany;rounded=0;exitX=1;exitY=0.5;exitDx=0;exitDy=0;entryX=0;entryY=0.5;entryDx=0;entryDy=0;endFill=0;startArrow=ERone;startFill=0;" parent="1" source="p3_Wb0V0BwmXtn1FnA3j-14" target="p3_Wb0V0BwmXtn1FnA3j-51" edge="1">
          <mxGeometry width="100" height="100" relative="1" as="geometry">
            <mxPoint x="150" y="680" as="sourcePoint" />
            <mxPoint x="250" y="580" as="targetPoint" />
          </mxGeometry>
        </mxCell>
        <mxCell id="p3_Wb0V0BwmXtn1FnA3j-100" value="&lt;font style=&quot;font-size: 21px;&quot;&gt;1 to Many&lt;/font&gt;" style="edgeLabel;html=1;align=center;verticalAlign=middle;resizable=0;points=[];" parent="p3_Wb0V0BwmXtn1FnA3j-99" vertex="1" connectable="0">
          <mxGeometry x="-0.0788" y="-1" relative="1" as="geometry">
            <mxPoint as="offset" />
          </mxGeometry>
        </mxCell>
      </root>
    </mxGraphModel>
  </diagram>
</mxfile>
